<svg id="Layer_1" xmlns="http://www.w3.org/2000/svg" viewBox="0 0 100 38.3"><style>.st0{fill:none;stroke:#000;stroke-miterlimit:10}.st1{fill:#bcbec0}</style><path class="st1" d="M6.7 8.8L77 6s-2.7.2-2.7 2.4c0 1.7.9 2.5 2.4 2.5.8.1-70-2.1-70-2.1z"/><path d="M81 8.5c0 .6-.2 1.1-.7 1.5-.5.4-1.1.6-1.7.6-.7 0-1.3-.2-1.8-.6-.5-.4-.7-.9-.7-1.5s.2-1.1.7-1.5c.5-.4 1.1-.6 1.8-.6s1.3.2 1.7.6c.5.4.7.9.7 1.5zm-75.8.7c0 .2-.1.3-.2.4-.1.1-.2.2-.4.2s-.3-.1-.4-.2c-.1-.1-.2-.3-.2-.4 0-.2.1-.3.2-.4.1-.1.3-.2.4-.2.2 0 .3.1.4.2.2.1.2.2.2.4zm-2.4 4.1h3.9v15.5H2.8V13.3zm7.7 0h3.7v1.8c0 .6-.1 1.1-.1 1.1h.1c.7-1.3 2.4-3.2 5.5-3.2 3.4 0 5.4 1.8 5.4 5.9v10h-3.8v-9.2c0-1.9-.5-3.2-2.5-3.2-2.1 0-3.6 1.3-4.2 3.2-.2.6-.3 1.3-.3 2.1v7.1h-3.9V13.3zm18.8 10.9s1.7 1.7 4.2 1.7c1.1 0 2-.5 2-1.4 0-2.3-7.5-2-7.5-7 0-2.9 2.6-4.6 5.9-4.6 3.5 0 5.2 1.8 5.2 1.8l-1.4 2.9s-1.4-1.3-3.8-1.3c-1 0-2 .4-2 1.4 0 2.2 7.5 1.9 7.5 6.9 0 2.6-2.2 4.6-5.9 4.6-3.9 0-6-2.3-6-2.3l1.8-2.7zM49 12.9c4.5 0 6.9 3.2 6.9 7.3 0 .5-.1 1.5-.1 1.5H45.1c.2 2.7 2.3 4.1 4.6 4.1 2.5 0 4.5-1.7 4.5-1.7l1.5 2.8s-2.4 2.2-6.2 2.2c-5.1 0-8.3-3.7-8.3-8.1-.1-4.7 3.2-8.1 7.8-8.1zm3 6.2c-.1-2.1-1.4-3.2-3.1-3.2-2 0-3.3 1.2-3.7 3.2H52zm6.9-5.8h3.5v1.1c0 .6-.1 1.1-.1 1.1h.1s1.3-2.5 5-2.5c4.2 0 6.9 3.3 6.9 8.1 0 4.9-3 8.1-7.1 8.1-3.1 0-4.4-2.1-4.4-2.1h-.1s.1.5.1 1.3v6.5h-3.9V13.3zm7.6 12.6c2.1 0 3.9-1.7 3.9-4.8 0-2.9-1.6-4.9-3.9-4.9-2 0-3.9 1.5-3.9 4.9 0 2.4 1.3 4.8 3.9 4.8zm10.7-12.6H81v15.5h-3.9V13.3zm15.6 5.8h.5v-.2c0-2-1.3-2.7-3-2.7-2.2 0-4.2 1.5-4.2 1.5l-1.5-2.8S87 13 90.7 13c4.1 0 6.4 2.2 6.4 6.2v9.7h-3.6v-1.3c0-.6.1-1.1.1-1.1h-.1s-1.2 2.7-4.7 2.7c-2.8 0-5.3-1.7-5.3-4.8.2-5 6.8-5.3 9.3-5.3zm-2.9 7c2 0 3.5-2.2 3.5-4.1v-.4h-.7c-2 0-5.2.3-5.2 2.4.1 1.2.8 2.1 2.4 2.1z"/></svg>